<svg width="22" height="22" viewBox="0 0 22 22" fill="none" xmlns="http://www.w3.org/2000/svg">
<path d="M10.75 21.5C4.822 21.5 0 16.677 0 10.75C0 4.823 4.822 0 10.75 0C16.678 0 21.5 4.823 21.5 10.75C21.5 16.677 16.678 21.5 10.75 21.5ZM10.75 1.5C5.649 1.5 1.5 5.649 1.5 10.75C1.5 15.851 5.649 20 10.75 20C15.851 20 20 15.851 20 10.75C20 5.649 15.851 1.5 10.75 1.5ZM13.446 16.25C13.232 16.25 13.017 16.198 12.819 16.094L10.75 15.005L8.68298 16.093C8.22598 16.333 7.68299 16.294 7.26599 15.991C6.84799 15.687 6.64198 15.181 6.72998 14.671L7.125 12.366L5.396 10.679C5.037 10.329 4.90994 9.81398 5.06494 9.33698C5.21994 8.85997 5.62497 8.51902 6.12097 8.44702L8.51001 8.099L9.54395 6.00098C9.77295 5.53698 10.234 5.25 10.751 5.25C11.268 5.25 11.73 5.53801 11.958 6.00201L12.9919 8.09998L15.382 8.448C15.877 8.52 16.281 8.86101 16.437 9.33801C16.592 9.81501 16.465 10.33 16.106 10.68L14.377 12.367L14.7729 14.674C14.8599 15.184 14.654 15.69 14.236 15.993C13.999 16.163 13.724 16.25 13.446 16.25ZM10.75 13.479C10.959 13.479 11.168 13.529 11.358 13.63L13.24 14.621L12.881 12.522C12.808 12.097 12.948 11.664 13.257 11.363L14.78 9.87598L12.674 9.57001C12.248 9.50801 11.881 9.24003 11.691 8.85303L10.751 6.94598L9.81104 8.854C9.62104 9.24 9.253 9.50801 8.828 9.57001L6.72205 9.87598L8.245 11.363C8.554 11.663 8.69397 12.097 8.62097 12.522L8.26196 14.62L10.144 13.629C10.332 13.529 10.541 13.479 10.75 13.479ZM15.165 9.93201H15.175H15.165ZM10.611 6.664C10.611 6.665 10.611 6.665 10.611 6.664C10.611 6.665 10.611 6.665 10.611 6.664Z" fill="#828283"/>
</svg>
