<svg width="50" height="50" viewBox="0 0 50 50" fill="none" xmlns="http://www.w3.org/2000/svg">
<g filter="url(#filter0_i_4695_11506)">
<rect width="50" height="50" rx="25" fill="url(#paint0_linear_4695_11506)"/>
<rect x="0.5" y="0.5" width="49" height="49" rx="24.5" stroke="url(#paint1_linear_4695_11506)"/>
<path d="M26.4429 13.1444L29.356 19.0199C29.575 19.4624 29.998 19.7684 30.4885 19.8389L37.2128 20.8108C38.4458 20.9893 38.9379 22.5013 38.0454 23.3683L33.184 28.0859C32.8285 28.4309 32.6664 28.9274 32.7504 29.4149L33.8618 35.8709C34.0868 37.1804 32.7113 38.1794 31.5323 37.5629L25.7004 34.5104C25.2624 34.2809 24.7404 34.2809 24.3039 34.5104L18.4764 37.5598C17.2959 38.1778 15.9158 37.1773 16.1423 35.8648L17.254 29.4149C17.338 28.9274 17.1759 28.4309 16.8204 28.0859L11.9589 23.3683C11.0649 22.5013 11.5568 20.9893 12.7913 20.8108L19.5159 19.8389C20.0049 19.7684 20.4279 19.4624 20.6484 19.0199L23.5614 13.1444C24.1479 11.9519 25.8519 11.9519 26.4429 13.1444Z" fill="#59461F"/>
</g>
<defs>
<filter id="filter0_i_4695_11506" x="0" y="-4" width="50" height="54" filterUnits="userSpaceOnUse" color-interpolation-filters="sRGB">
<feFlood flood-opacity="0" result="BackgroundImageFix"/>
<feBlend mode="normal" in="SourceGraphic" in2="BackgroundImageFix" result="shape"/>
<feColorMatrix in="SourceAlpha" type="matrix" values="0 0 0 0 0 0 0 0 0 0 0 0 0 0 0 0 0 0 127 0" result="hardAlpha"/>
<feOffset dy="-4"/>
<feGaussianBlur stdDeviation="2"/>
<feComposite in2="hardAlpha" operator="arithmetic" k2="-1" k3="1"/>
<feColorMatrix type="matrix" values="0 0 0 0 1 0 0 0 0 1 0 0 0 0 1 0 0 0 1 0"/>
<feBlend mode="normal" in2="shape" result="effect1_innerShadow_4695_11506"/>
</filter>
<linearGradient id="paint0_linear_4695_11506" x1="25" y1="-14.7222" x2="25" y2="41.9444" gradientUnits="userSpaceOnUse">
<stop offset="0.336177" stop-color="#FFFEFB"/>
<stop offset="0.497704" stop-color="#FFEA91"/>
<stop offset="0.925056" stop-color="#E2B700"/>
</linearGradient>
<linearGradient id="paint1_linear_4695_11506" x1="14.375" y1="3.75" x2="34.375" y2="41.25" gradientUnits="userSpaceOnUse">
<stop stop-color="white"/>
<stop offset="1" stop-color="white" stop-opacity="0"/>
</linearGradient>
</defs>
</svg>
